<?xml version="1.0" encoding="utf-8"?>
<svg version="1.1" id="Layer_1" xmlns="http://www.w3.org/2000/svg" xmlns:xlink="http://www.w3.org/1999/xlink" x="0px" y="0px"
	 viewBox="0 0 806.2 804.7" style="enable-background:new 0 0 806.2 804.7;" xml:space="preserve">
<style type="text/css">
	.st0{clip-path:url(#SVGID_2_);fill:#FFFFFF;}
	.st1{clip-path:url(#SVGID_4_);fill:#FFFFFF;}
</style>
<g>
	<defs>
		<rect id="SVGID_1_" x="146.6" y="145.2" width="512" height="512"/>
	</defs>
	<clipPath id="SVGID_2_">
		<use xlink:href="#SVGID_1_"  style="overflow:visible;"/>
	</clipPath>
	<path class="st0" d="M284.5,635.8h236.2l20.6-267.5c0.4-5.6,5.1-9.8,10.6-9.8c35.3,0,64-28.7,64-64c0-38.7-33.9-65.6-64.3-65.6
		c-10.5,0-20.3,2.9-29.1,8.7c-2.6,1.7-5.9,2.2-8.9,1.3c-3-0.9-5.5-3-6.7-5.9c-20.1-45.4-53.2-66.5-104.3-66.5
		c-55,0-96.6,25.8-103.6,64.1c-0.6,3.5-3,6.5-6.3,7.9c-3.3,1.4-7.1,1.1-10.1-0.9c-8.8-5.8-18.6-8.7-29.1-8.7
		c-30.4,0-64.4,26.9-64.4,65.6c0,35.3,28.7,64,64,64c5.6,0,10.2,4.3,10.6,9.8L284.5,635.8z M530.6,657.2h-256
		c-5.6,0-10.2-4.3-10.6-9.8l-20.6-268.1c-42.4-4.9-75.4-41.1-75.4-84.8c0-47.1,39.2-86.9,85.7-86.9c9.7,0,19.2,1.9,28.1,5.5
		c15-41.2,61.6-67.9,120.9-67.9c55.7,0,94.7,22.5,118.8,68.8c9.5-4.2,19.7-6.4,30.2-6.4c46.4,0,85.7,39.8,85.7,87
		c0,43.7-33,79.8-75.4,84.8l-20.6,268.1C540.8,652.9,536.2,657.2,530.6,657.2z"/>
</g>
<g>
	<defs>
		<rect id="SVGID_3_" x="146.6" y="145.2" width="512" height="512"/>
	</defs>
	<clipPath id="SVGID_4_">
		<use xlink:href="#SVGID_3_"  style="overflow:visible;"/>
	</clipPath>
	<path class="st1" d="M537.3,571.8H268c-5.9,0-10.7-4.8-10.7-10.7s4.8-10.7,10.7-10.7h269.3c5.9,0,10.7,4.8,10.7,10.7
		S543.2,571.8,537.3,571.8z"/>
</g>
<g>
	<defs>
		<rect id="SVGID_5_" x="146.6" y="145.2" width="512" height="512"/>
	</defs>
	<clipPath id="SVGID_6_">
		<use xlink:href="#SVGID_5_"  style="overflow:visible;"/>
	</clipPath>
</g>
<g>
	<defs>
		<rect id="SVGID_7_" x="146.6" y="145.2" width="512" height="512"/>
	</defs>
	<clipPath id="SVGID_8_">
		<use xlink:href="#SVGID_7_"  style="overflow:visible;"/>
	</clipPath>
</g>
<g>
	<defs>
		<rect id="SVGID_9_" x="146.6" y="145.2" width="512" height="512"/>
	</defs>
	<clipPath id="SVGID_10_">
		<use xlink:href="#SVGID_9_"  style="overflow:visible;"/>
	</clipPath>
</g>
</svg>
